<svg width="315" height="514" viewBox="0 0 315 514" fill="none" xmlns="http://www.w3.org/2000/svg">
<rect x="103.846" y="11" width="92.3077" height="11.5385" fill="#ffff"/>
<rect x="103.846" y="299.462" width="92.3077" height="11.5385" fill="#ffff"/>
<rect x="288.461" y="114.846" width="11.5385" height="92.3077" fill="#ffff"/>
<rect y="114.846" width="11.5385" height="92.3077" fill="#ffff"/>
<rect x="34.6155" y="126.385" width="11.5385" height="69.2308" fill="#ffff"/>
<rect x="196.154" y="22.5385" width="23.0769" height="11.5385" fill="#ffff"/>
<rect x="80.7693" y="22.5385" width="23.0769" height="11.5385" fill="#ffff"/>
<rect x="196.154" y="287.923" width="23.0769" height="11.5385" fill="#ffff"/>
<rect x="80.7693" y="287.923" width="23.0769" height="11.5385" fill="#ffff"/>
<rect x="219.231" y="34.0769" width="23.0769" height="11.5385" fill="#ffff"/>
<rect x="57.6924" y="34.0769" width="23.0769" height="11.5385" fill="#ffff"/>
<rect x="219.231" y="276.385" width="23.0769" height="11.5385" fill="#ffff"/>
<rect x="57.6924" y="276.385" width="23.0769" height="11.5385" fill="#ffff"/>
<rect x="242.308" y="45.6154" width="11.5385" height="11.5385" fill="#ffff"/>
<rect x="46.1538" y="45.6154" width="11.5385" height="11.5385" fill="#ffff"/>
<rect x="242.308" y="264.846" width="11.5385" height="11.5385" fill="#ffff"/>
<rect x="46.1538" y="264.846" width="11.5385" height="11.5385" fill="#ffff"/>
<rect x="253.846" y="57.1538" width="11.5385" height="11.5385" fill="#ffff"/>
<rect x="34.6155" y="57.1538" width="11.5385" height="11.5385" fill="#ffff"/>
<rect x="253.846" y="253.308" width="11.5385" height="11.5385" fill="#ffff"/>
<rect x="34.6155" y="253.308" width="11.5385" height="11.5385" fill="#ffff"/>
<rect x="23.0769" y="68.6923" width="11.5385" height="23.0769" fill="#ffff"/>
<rect x="57.6924" y="103.308" width="11.5385" height="11.5385" fill="#ffff"/>
<rect x="265.385" y="68.6923" width="11.5385" height="23.0769" fill="#ffff"/>
<rect x="265.385" y="230.231" width="11.5385" height="23.0769" fill="#ffff"/>
<rect x="23.0769" y="230.231" width="11.5385" height="23.0769" fill="#ffff"/>
<rect x="276.923" y="91.7693" width="11.5385" height="23.0769" fill="#ffff"/>
<rect x="11.5386" y="91.7693" width="11.5385" height="23.0769" fill="#ffff"/>
<rect x="46.1538" y="114.846" width="11.5385" height="11.5385" fill="#ffff"/>
<rect x="276.923" y="207.154" width="11.5385" height="23.0769" fill="#ffff"/>
<rect x="11.5386" y="207.154" width="11.5385" height="23.0769" fill="#ffff"/>
<rect x="46.1538" y="195.615" width="11.5385" height="11.5385" fill="#ffff"/>
<rect x="138" y="322.846" width="11.5385" height="92.3077" fill="#ffff"/>
<rect x="172.615" y="334.385" width="11.5385" height="69.2308" fill="#ffff"/>
<rect x="218.769" y="230.538" width="23.0769" height="11.5385" fill="#ffff"/>
<rect x="218.769" y="495.923" width="23.0769" height="11.5385" fill="#ffff"/>
<rect x="195.692" y="242.077" width="23.0769" height="11.5385" fill="#ffff"/>
<rect x="195.692" y="484.385" width="23.0769" height="11.5385" fill="#ffff"/>
<rect x="184.154" y="253.615" width="11.5385" height="11.5385" fill="#ffff"/>
<rect x="184.154" y="472.846" width="11.5385" height="11.5385" fill="#ffff"/>
<rect x="172.615" y="265.154" width="11.5385" height="11.5385" fill="#ffff"/>
<rect x="172.615" y="461.308" width="11.5385" height="11.5385" fill="#ffff"/>
<rect x="161.077" y="276.692" width="11.5385" height="23.0769" fill="#ffff"/>
<rect x="195.692" y="311.308" width="11.5385" height="11.5385" fill="#ffff"/>
<rect x="161.077" y="438.231" width="11.5385" height="23.0769" fill="#ffff"/>
<rect x="149.539" y="299.769" width="11.5385" height="23.0769" fill="#ffff"/>
<rect x="184.154" y="322.846" width="11.5385" height="11.5385" fill="#ffff"/>
<rect x="149.539" y="415.154" width="11.5385" height="23.0769" fill="#ffff"/>
<rect x="184.154" y="403.615" width="11.5385" height="11.5385" fill="#ffff"/>
<rect x="242" y="288" width="73" height="12" fill="#ffff"/>
<rect x="240" width="73" height="12" fill="#ffff"/>
<rect x="240" y="218" width="73" height="12" fill="#ffff"/>
<rect x="242" y="502" width="73" height="12" fill="#ffff"/>
<rect x="138" y="103.846" width="11.5385" height="92.3077" fill="#ffff"/>
<rect x="172.615" y="115.385" width="11.5385" height="69.2308" fill="#ffff"/>
<rect x="218.769" y="11.5385" width="23.0769" height="11.5385" fill="#ffff"/>
<rect x="218.769" y="276.923" width="23.0769" height="11.5385" fill="#ffff"/>
<rect x="195.692" y="23.0769" width="23.0769" height="11.5385" fill="#ffff"/>
<rect x="195.692" y="265.385" width="23.0769" height="11.5385" fill="#ffff"/>
<rect x="184.154" y="34.6154" width="11.5385" height="11.5385" fill="#ffff"/>
<rect x="184.154" y="253.846" width="11.5385" height="11.5385" fill="#ffff"/>
<rect x="172.615" y="46.1538" width="11.5385" height="11.5385" fill="#ffff"/>
<rect x="172.615" y="242.308" width="11.5385" height="11.5385" fill="#ffff"/>
<rect x="161.077" y="57.6923" width="11.5385" height="23.0769" fill="#ffff"/>
<rect x="195.692" y="92.3077" width="11.5385" height="11.5385" fill="#ffff"/>
<rect x="161.077" y="219.231" width="11.5385" height="23.0769" fill="#ffff"/>
<rect x="149.539" y="80.7693" width="11.5385" height="23.0769" fill="#ffff"/>
<rect x="184.154" y="103.846" width="11.5385" height="11.5385" fill="#ffff"/>
<rect x="149.539" y="196.154" width="11.5385" height="23.0769" fill="#ffff"/>
<rect x="184.154" y="184.615" width="11.5385" height="11.5385" fill="#ffff"/>
</svg>
