<svg width="47" height="5" viewBox="0 0 47 5" fill="none" xmlns="http://www.w3.org/2000/svg">
<rect x="2.2868" y="0.378677" width="1" height="1" transform="rotate(45 2.2868 0.378677)" fill="white"/>
<rect x="6.52944" y="0.378677" width="1" height="1" transform="rotate(45 6.52944 0.378677)" fill="white"/>
<rect x="10.7721" y="0.378677" width="1" height="1" transform="rotate(45 10.7721 0.378677)" fill="white"/>
<rect x="15.0147" y="0.378677" width="1" height="1" transform="rotate(45 15.0147 0.378677)" fill="white"/>
<rect x="19.2574" y="0.378677" width="1" height="1" transform="rotate(45 19.2574 0.378677)" fill="white"/>
<rect x="23.5" y="0.378677" width="1" height="1" transform="rotate(45 23.5 0.378677)" fill="white"/>
<rect x="27.7426" y="0.378677" width="1" height="1" transform="rotate(45 27.7426 0.378677)" fill="white"/>
<rect x="31.9853" y="0.378677" width="1" height="1" transform="rotate(45 31.9853 0.378677)" fill="white"/>
<rect x="36.2279" y="0.378677" width="1" height="1" transform="rotate(45 36.2279 0.378677)" fill="white"/>
<rect x="40.4706" y="0.378677" width="1" height="1" transform="rotate(45 40.4706 0.378677)" fill="white"/>
<rect x="44.7132" y="0.378677" width="1" height="1" transform="rotate(45 44.7132 0.378677)" fill="white"/>
<rect x="1.57969" y="1.08578" width="1" height="1" transform="rotate(45 1.57969 1.08578)" fill="white"/>
<rect x="5.82233" y="1.08578" width="1" height="1" transform="rotate(45 5.82233 1.08578)" fill="white"/>
<rect x="10.065" y="1.08578" width="1" height="1" transform="rotate(45 10.065 1.08578)" fill="white"/>
<rect x="14.3076" y="1.08578" width="1" height="1" transform="rotate(45 14.3076 1.08578)" fill="white"/>
<rect x="18.5503" y="1.08578" width="1" height="1" transform="rotate(45 18.5503 1.08578)" fill="white"/>
<rect x="22.7929" y="1.08578" width="1" height="1" transform="rotate(45 22.7929 1.08578)" fill="white"/>
<rect x="27.0355" y="1.08578" width="1" height="1" transform="rotate(45 27.0355 1.08578)" fill="white"/>
<rect x="31.2782" y="1.08578" width="1" height="1" transform="rotate(45 31.2782 1.08578)" fill="white"/>
<rect x="35.5208" y="1.08578" width="1" height="1" transform="rotate(45 35.5208 1.08578)" fill="white"/>
<rect x="39.7635" y="1.08578" width="1" height="1" transform="rotate(45 39.7635 1.08578)" fill="white"/>
<rect x="44.0061" y="1.08578" width="1" height="1" transform="rotate(45 44.0061 1.08578)" fill="white"/>
<rect x="0.872583" y="1.79289" width="1" height="1" transform="rotate(45 0.872583 1.79289)" fill="white"/>
<rect x="5.11522" y="1.79289" width="1" height="1" transform="rotate(45 5.11522 1.79289)" fill="white"/>
<rect x="9.35786" y="1.79289" width="1" height="1" transform="rotate(45 9.35786 1.79289)" fill="white"/>
<rect x="13.6005" y="1.79289" width="1" height="1" transform="rotate(45 13.6005 1.79289)" fill="white"/>
<rect x="17.8431" y="1.79289" width="1" height="1" transform="rotate(45 17.8431 1.79289)" fill="white"/>
<rect x="22.0858" y="1.79289" width="1" height="1" transform="rotate(45 22.0858 1.79289)" fill="white"/>
<rect x="26.3284" y="1.79289" width="1" height="1" transform="rotate(45 26.3284 1.79289)" fill="white"/>
<rect x="30.5711" y="1.79289" width="1" height="1" transform="rotate(45 30.5711 1.79289)" fill="white"/>
<rect x="34.8137" y="1.79289" width="1" height="1" transform="rotate(45 34.8137 1.79289)" fill="white"/>
<rect x="39.0564" y="1.79289" width="1" height="1" transform="rotate(45 39.0564 1.79289)" fill="white"/>
<rect x="43.299" y="1.79289" width="1" height="1" transform="rotate(45 43.299 1.79289)" fill="white"/>
<rect width="1" height="1" transform="matrix(-0.707107 -0.707107 -0.707107 0.707107 2.2868 3.20711)" fill="white"/>
<rect width="1" height="1" transform="matrix(-0.707107 -0.707107 -0.707107 0.707107 6.52944 3.20711)" fill="white"/>
<rect width="1" height="1" transform="matrix(-0.707107 -0.707107 -0.707107 0.707107 10.7721 3.20711)" fill="white"/>
<rect width="1" height="1" transform="matrix(-0.707107 -0.707107 -0.707107 0.707107 15.0147 3.20711)" fill="white"/>
<rect width="1" height="1" transform="matrix(-0.707107 -0.707107 -0.707107 0.707107 19.2574 3.20711)" fill="white"/>
<rect width="1" height="1" transform="matrix(-0.707107 -0.707107 -0.707107 0.707107 23.5 3.20711)" fill="white"/>
<rect width="1" height="1" transform="matrix(-0.707107 -0.707107 -0.707107 0.707107 27.7426 3.20711)" fill="white"/>
<rect width="1" height="1" transform="matrix(-0.707107 -0.707107 -0.707107 0.707107 31.9853 3.20711)" fill="white"/>
<rect width="1" height="1" transform="matrix(-0.707107 -0.707107 -0.707107 0.707107 36.2279 3.20711)" fill="white"/>
<rect width="1" height="1" transform="matrix(-0.707107 -0.707107 -0.707107 0.707107 40.4706 3.20711)" fill="white"/>
<rect width="1" height="1" transform="matrix(-0.707107 -0.707107 -0.707107 0.707107 44.7132 3.20711)" fill="white"/>
<rect width="1" height="1" transform="matrix(-0.707107 -0.707107 -0.707107 0.707107 2.9939 3.91422)" fill="white"/>
<rect width="1" height="1" transform="matrix(-0.707107 -0.707107 -0.707107 0.707107 7.23655 3.91422)" fill="white"/>
<rect width="1" height="1" transform="matrix(-0.707107 -0.707107 -0.707107 0.707107 11.4792 3.91422)" fill="white"/>
<rect width="1" height="1" transform="matrix(-0.707107 -0.707107 -0.707107 0.707107 15.7218 3.91422)" fill="white"/>
<rect width="1" height="1" transform="matrix(-0.707107 -0.707107 -0.707107 0.707107 19.9645 3.91422)" fill="white"/>
<rect width="1" height="1" transform="matrix(-0.707107 -0.707107 -0.707107 0.707107 24.2071 3.91422)" fill="white"/>
<rect width="1" height="1" transform="matrix(-0.707107 -0.707107 -0.707107 0.707107 28.4497 3.91422)" fill="white"/>
<rect width="1" height="1" transform="matrix(-0.707107 -0.707107 -0.707107 0.707107 32.6924 3.91422)" fill="white"/>
<rect width="1" height="1" transform="matrix(-0.707107 -0.707107 -0.707107 0.707107 36.935 3.91422)" fill="white"/>
<rect width="1" height="1" transform="matrix(-0.707107 -0.707107 -0.707107 0.707107 41.1777 3.91422)" fill="white"/>
<rect width="1" height="1" transform="matrix(-0.707107 -0.707107 -0.707107 0.707107 45.4203 3.91422)" fill="white"/>
<rect width="1" height="1" transform="matrix(-0.707107 -0.707107 -0.707107 0.707107 3.70101 3.20711)" fill="white"/>
<rect width="1" height="1" transform="matrix(-0.707107 -0.707107 -0.707107 0.707107 7.94365 3.20711)" fill="white"/>
<rect width="1" height="1" transform="matrix(-0.707107 -0.707107 -0.707107 0.707107 12.1863 3.20711)" fill="white"/>
<rect width="1" height="1" transform="matrix(-0.707107 -0.707107 -0.707107 0.707107 16.4289 3.20711)" fill="white"/>
<rect width="1" height="1" transform="matrix(-0.707107 -0.707107 -0.707107 0.707107 20.6716 3.20711)" fill="white"/>
<rect width="1" height="1" transform="matrix(-0.707107 -0.707107 -0.707107 0.707107 24.9142 3.20711)" fill="white"/>
<rect width="1" height="1" transform="matrix(-0.707107 -0.707107 -0.707107 0.707107 29.1569 3.20711)" fill="white"/>
<rect width="1" height="1" transform="matrix(-0.707107 -0.707107 -0.707107 0.707107 33.3995 3.20711)" fill="white"/>
<rect width="1" height="1" transform="matrix(-0.707107 -0.707107 -0.707107 0.707107 37.6421 3.20711)" fill="white"/>
<rect width="1" height="1" transform="matrix(-0.707107 -0.707107 -0.707107 0.707107 41.8848 3.20711)" fill="white"/>
<rect width="1" height="1" transform="matrix(-0.707107 -0.707107 -0.707107 0.707107 46.1274 3.20711)" fill="white"/>
<rect width="1" height="1" transform="matrix(-0.707107 -0.707107 -0.707107 0.707107 4.40812 2.5)" fill="white"/>
<rect width="1" height="1" transform="matrix(-0.707107 -0.707107 -0.707107 0.707107 8.65076 2.5)" fill="white"/>
<rect width="1" height="1" transform="matrix(-0.707107 -0.707107 -0.707107 0.707107 12.8934 2.5)" fill="white"/>
<rect width="1" height="1" transform="matrix(-0.707107 -0.707107 -0.707107 0.707107 17.136 2.5)" fill="white"/>
<rect width="1" height="1" transform="matrix(-0.707107 -0.707107 -0.707107 0.707107 21.3787 2.5)" fill="white"/>
<rect width="1" height="1" transform="matrix(-0.707107 -0.707107 -0.707107 0.707107 25.6213 2.5)" fill="white"/>
<rect width="1" height="1" transform="matrix(-0.707107 -0.707107 -0.707107 0.707107 29.864 2.5)" fill="white"/>
<rect width="1" height="1" transform="matrix(-0.707107 -0.707107 -0.707107 0.707107 34.1066 2.5)" fill="white"/>
<rect width="1" height="1" transform="matrix(-0.707107 -0.707107 -0.707107 0.707107 38.3492 2.5)" fill="white"/>
<rect width="1" height="1" transform="matrix(-0.707107 -0.707107 -0.707107 0.707107 42.5919 2.5)" fill="white"/>
<rect width="1" height="1" transform="matrix(-0.707107 -0.707107 -0.707107 0.707107 46.8345 2.5)" fill="white"/>
<rect x="2.2868" y="1.79289" width="1" height="1" transform="rotate(45 2.2868 1.79289)" fill="white"/>
<rect x="6.52944" y="1.79289" width="1" height="1" transform="rotate(45 6.52944 1.79289)" fill="white"/>
<rect x="10.7721" y="1.79289" width="1" height="1" transform="rotate(45 10.7721 1.79289)" fill="white"/>
<rect x="15.0147" y="1.79289" width="1" height="1" transform="rotate(45 15.0147 1.79289)" fill="white"/>
<rect x="19.2574" y="1.79289" width="1" height="1" transform="rotate(45 19.2574 1.79289)" fill="white"/>
<rect x="23.5" y="1.79289" width="1" height="1" transform="rotate(45 23.5 1.79289)" fill="white"/>
<rect x="27.7426" y="1.79289" width="1" height="1" transform="rotate(45 27.7426 1.79289)" fill="white"/>
<rect x="31.9853" y="1.79289" width="1" height="1" transform="rotate(45 31.9853 1.79289)" fill="white"/>
<rect x="36.2279" y="1.79289" width="1" height="1" transform="rotate(45 36.2279 1.79289)" fill="white"/>
<rect x="40.4706" y="1.79289" width="1" height="1" transform="rotate(45 40.4706 1.79289)" fill="white"/>
<rect x="44.7132" y="1.79289" width="1" height="1" transform="rotate(45 44.7132 1.79289)" fill="white"/>
<rect x="2.9939" y="1.08578" width="1" height="1" transform="rotate(45 2.9939 1.08578)" fill="white"/>
<rect x="7.23655" y="1.08578" width="1" height="1" transform="rotate(45 7.23655 1.08578)" fill="white"/>
<rect x="11.4792" y="1.08578" width="1" height="1" transform="rotate(45 11.4792 1.08578)" fill="white"/>
<rect x="15.7218" y="1.08578" width="1" height="1" transform="rotate(45 15.7218 1.08578)" fill="white"/>
<rect x="19.9645" y="1.08578" width="1" height="1" transform="rotate(45 19.9645 1.08578)" fill="white"/>
<rect x="24.2071" y="1.08578" width="1" height="1" transform="rotate(45 24.2071 1.08578)" fill="white"/>
<rect x="28.4497" y="1.08578" width="1" height="1" transform="rotate(45 28.4497 1.08578)" fill="white"/>
<rect x="32.6924" y="1.08578" width="1" height="1" transform="rotate(45 32.6924 1.08578)" fill="white"/>
<rect x="36.935" y="1.08578" width="1" height="1" transform="rotate(45 36.935 1.08578)" fill="white"/>
<rect x="41.1777" y="1.08578" width="1" height="1" transform="rotate(45 41.1777 1.08578)" fill="white"/>
<rect x="45.4203" y="1.08578" width="1" height="1" transform="rotate(45 45.4203 1.08578)" fill="white"/>
</svg>
