<svg width="47" height="5" viewBox="0 0 47 5" fill="none" xmlns="http://www.w3.org/2000/svg">
<path d="M2.82843 0.707107L2.12132 0L1.41422 0.707107L2.12132 1.41421L2.82843 0.707107Z" fill="white"/>
<path d="M2.82843 0.707107L2.12132 0L1.41422 0.707107L2.12132 1.41421L2.82843 0.707107Z" fill="white"/>
<path d="M7.07107 0.707107L6.36396 0L5.65686 0.707107L6.36396 1.41421L7.07107 0.707107Z" fill="white"/>
<path d="M7.07107 0.707107L6.36396 0L5.65686 0.707107L6.36396 1.41421L7.07107 0.707107Z" fill="white"/>
<path d="M11.3137 0.707107L10.6066 0L9.89952 0.707107L10.6066 1.41421L11.3137 0.707107Z" fill="white"/>
<path d="M11.3137 0.707107L10.6066 0L9.89952 0.707107L10.6066 1.41421L11.3137 0.707107Z" fill="white"/>
<path d="M15.5563 0.707107L14.8492 0L14.1421 0.707107L14.8492 1.41421L15.5563 0.707107Z" fill="white"/>
<path d="M15.5563 0.707107L14.8492 0L14.1421 0.707107L14.8492 1.41421L15.5563 0.707107Z" fill="white"/>
<path d="M19.799 0.707107L19.0919 0L18.3848 0.707107L19.0919 1.41421L19.799 0.707107Z" fill="white"/>
<path d="M19.799 0.707107L19.0919 0L18.3848 0.707107L19.0919 1.41421L19.799 0.707107Z" fill="white"/>
<path d="M24.0416 0.707107L23.3345 0L22.6274 0.707107L23.3345 1.41421L24.0416 0.707107Z" fill="white"/>
<path d="M24.0416 0.707107L23.3345 0L22.6274 0.707107L23.3345 1.41421L24.0416 0.707107Z" fill="white"/>
<path d="M28.2842 0.707107L27.5771 0L26.87 0.707107L27.5771 1.41421L28.2842 0.707107Z" fill="white"/>
<path d="M28.2842 0.707107L27.5771 0L26.87 0.707107L27.5771 1.41421L28.2842 0.707107Z" fill="white"/>
<path d="M32.5269 0.707105L31.8198 0L31.1127 0.707107L31.8198 1.41421L32.5269 0.707105Z" fill="white"/>
<path d="M32.5269 0.707105L31.8198 0L31.1127 0.707107L31.8198 1.41421L32.5269 0.707105Z" fill="white"/>
<path d="M36.7695 0.707107L36.0624 0L35.3553 0.707107L36.0624 1.41421L36.7695 0.707107Z" fill="white"/>
<path d="M36.7695 0.707107L36.0624 0L35.3553 0.707107L36.0624 1.41421L36.7695 0.707107Z" fill="white"/>
<path d="M41.0122 0.707107L40.3051 0L39.598 0.707107L40.3051 1.41421L41.0122 0.707107Z" fill="white"/>
<path d="M41.0122 0.707107L40.3051 0L39.598 0.707107L40.3051 1.41421L41.0122 0.707107Z" fill="white"/>
<path d="M45.2548 0.707107L44.5477 0L43.8406 0.707107L44.5477 1.41421L45.2548 0.707107Z" fill="white"/>
<path d="M45.2548 0.707107L44.5477 0L43.8406 0.707107L44.5477 1.41421L45.2548 0.707107Z" fill="white"/>
<path d="M2.12132 1.41421L1.41421 0.707108L0.707107 1.41421L1.41421 2.12132L2.12132 1.41421Z" fill="white"/>
<path d="M2.12132 1.41421L1.41421 0.707108L0.707107 1.41421L1.41421 2.12132L2.12132 1.41421Z" fill="white"/>
<path d="M6.36396 1.41421L5.65685 0.707108L4.94975 1.41421L5.65685 2.12132L6.36396 1.41421Z" fill="white"/>
<path d="M6.36396 1.41421L5.65685 0.707108L4.94975 1.41421L5.65685 2.12132L6.36396 1.41421Z" fill="white"/>
<path d="M10.6066 1.41421L9.89952 0.707108L9.19242 1.41421L9.89952 2.12132L10.6066 1.41421Z" fill="white"/>
<path d="M10.6066 1.41421L9.89952 0.707108L9.19242 1.41421L9.89952 2.12132L10.6066 1.41421Z" fill="white"/>
<path d="M14.8492 1.41421L14.1421 0.707108L13.435 1.41421L14.1421 2.12132L14.8492 1.41421Z" fill="white"/>
<path d="M14.8492 1.41421L14.1421 0.707108L13.435 1.41421L14.1421 2.12132L14.8492 1.41421Z" fill="white"/>
<path d="M19.0919 1.41421L18.3848 0.707108L17.6777 1.41421L18.3848 2.12132L19.0919 1.41421Z" fill="white"/>
<path d="M19.0919 1.41421L18.3848 0.707108L17.6777 1.41421L18.3848 2.12132L19.0919 1.41421Z" fill="white"/>
<path d="M23.3345 1.41421L22.6274 0.707108L21.9203 1.41421L22.6274 2.12132L23.3345 1.41421Z" fill="white"/>
<path d="M23.3345 1.41421L22.6274 0.707108L21.9203 1.41421L22.6274 2.12132L23.3345 1.41421Z" fill="white"/>
<path d="M27.5771 1.41421L26.87 0.707108L26.1629 1.41421L26.87 2.12132L27.5771 1.41421Z" fill="white"/>
<path d="M27.5771 1.41421L26.87 0.707108L26.1629 1.41421L26.87 2.12132L27.5771 1.41421Z" fill="white"/>
<path d="M31.8198 1.41421L31.1127 0.707108L30.4056 1.41421L31.1127 2.12132L31.8198 1.41421Z" fill="white"/>
<path d="M31.8198 1.41421L31.1127 0.707108L30.4056 1.41421L31.1127 2.12132L31.8198 1.41421Z" fill="white"/>
<path d="M36.0624 1.41421L35.3553 0.707108L34.6482 1.41421L35.3553 2.12132L36.0624 1.41421Z" fill="white"/>
<path d="M36.0624 1.41421L35.3553 0.707108L34.6482 1.41421L35.3553 2.12132L36.0624 1.41421Z" fill="white"/>
<path d="M40.3051 1.41421L39.598 0.707108L38.8909 1.41421L39.598 2.12132L40.3051 1.41421Z" fill="white"/>
<path d="M40.3051 1.41421L39.598 0.707108L38.8909 1.41421L39.598 2.12132L40.3051 1.41421Z" fill="white"/>
<path d="M44.5477 1.41421L43.8406 0.707108L43.1335 1.41421L43.8406 2.12132L44.5477 1.41421Z" fill="white"/>
<path d="M44.5477 1.41421L43.8406 0.707108L43.1335 1.41421L43.8406 2.12132L44.5477 1.41421Z" fill="white"/>
<path d="M1.41421 2.12132L0.707108 1.41422L6.90567e-07 2.12132L0.707107 2.82843L1.41421 2.12132Z" fill="white"/>
<path d="M1.41421 2.12132L0.707107 1.41422L-2.63108e-07 2.12132L0.707107 2.82843L1.41421 2.12132Z" fill="white"/>
<path d="M5.65685 2.12132L4.94975 1.41422L4.24264 2.12132L4.94975 2.82843L5.65685 2.12132Z" fill="white"/>
<path d="M5.65685 2.12132L4.94975 1.41422L4.24264 2.12132L4.94975 2.82843L5.65685 2.12132Z" fill="white"/>
<path d="M9.89949 2.12132L9.19238 1.41422L8.48528 2.12132L9.19238 2.82843L9.89949 2.12132Z" fill="white"/>
<path d="M9.89949 2.12132L9.19238 1.41422L8.48528 2.12132L9.19238 2.82843L9.89949 2.12132Z" fill="white"/>
<path d="M14.1421 2.12132L13.435 1.41422L12.7279 2.12132L13.435 2.82843L14.1421 2.12132Z" fill="white"/>
<path d="M14.1421 2.12132L13.435 1.41422L12.7279 2.12132L13.435 2.82843L14.1421 2.12132Z" fill="white"/>
<path d="M18.3847 2.12132L17.6776 1.41422L16.9705 2.12132L17.6776 2.82843L18.3847 2.12132Z" fill="white"/>
<path d="M18.3847 2.12132L17.6776 1.41422L16.9705 2.12132L17.6776 2.82843L18.3847 2.12132Z" fill="white"/>
<path d="M22.6274 2.12132L21.9203 1.41422L21.2132 2.12132L21.9203 2.82843L22.6274 2.12132Z" fill="white"/>
<path d="M22.6274 2.12132L21.9203 1.41422L21.2132 2.12132L21.9203 2.82843L22.6274 2.12132Z" fill="white"/>
<path d="M26.87 2.12132L26.1629 1.41422L25.4558 2.12132L26.1629 2.82843L26.87 2.12132Z" fill="white"/>
<path d="M26.87 2.12132L26.1629 1.41422L25.4558 2.12132L26.1629 2.82843L26.87 2.12132Z" fill="white"/>
<path d="M31.1127 2.12132L30.4056 1.41422L29.6985 2.12132L30.4056 2.82843L31.1127 2.12132Z" fill="white"/>
<path d="M31.1127 2.12132L30.4056 1.41422L29.6985 2.12132L30.4056 2.82843L31.1127 2.12132Z" fill="white"/>
<path d="M35.3553 2.12132L34.6482 1.41422L33.9411 2.12132L34.6482 2.82843L35.3553 2.12132Z" fill="white"/>
<path d="M35.3553 2.12132L34.6482 1.41422L33.9411 2.12132L34.6482 2.82843L35.3553 2.12132Z" fill="white"/>
<path d="M39.598 2.12132L38.8909 1.41422L38.1838 2.12132L38.8909 2.82843L39.598 2.12132Z" fill="white"/>
<path d="M39.598 2.12132L38.8909 1.41422L38.1838 2.12132L38.8909 2.82843L39.598 2.12132Z" fill="white"/>
<path d="M43.8406 2.12132L43.1335 1.41422L42.4264 2.12132L43.1335 2.82843L43.8406 2.12132Z" fill="white"/>
<path d="M43.8406 2.12132L43.1335 1.41422L42.4264 2.12132L43.1335 2.82843L43.8406 2.12132Z" fill="white"/>
<path d="M1.41422 2.12132L2.12132 2.82843L1.41422 3.53554L0.707111 2.82843L1.41422 2.12132Z" fill="white"/>
<path d="M1.41422 2.12132L2.12132 2.82843L1.41422 3.53554L0.70711 2.82843L1.41422 2.12132Z" fill="white"/>
<path d="M5.65686 2.12132L6.36396 2.82843L5.65686 3.53554L4.94975 2.82843L5.65686 2.12132Z" fill="white"/>
<path d="M5.65686 2.12132L6.36396 2.82843L5.65686 3.53554L4.94975 2.82843L5.65686 2.12132Z" fill="white"/>
<path d="M9.89952 2.12132L10.6066 2.82843L9.89952 3.53554L9.19241 2.82843L9.89952 2.12132Z" fill="white"/>
<path d="M9.89952 2.12132L10.6066 2.82843L9.89952 3.53554L9.19241 2.82843L9.89952 2.12132Z" fill="white"/>
<path d="M14.1421 2.12132L14.8492 2.82843L14.1421 3.53554L13.435 2.82843L14.1421 2.12132Z" fill="white"/>
<path d="M14.1421 2.12132L14.8492 2.82843L14.1421 3.53554L13.435 2.82843L14.1421 2.12132Z" fill="white"/>
<path d="M18.3848 2.12132L19.0919 2.82843L18.3848 3.53554L17.6777 2.82843L18.3848 2.12132Z" fill="white"/>
<path d="M18.3848 2.12132L19.0919 2.82843L18.3848 3.53554L17.6777 2.82843L18.3848 2.12132Z" fill="white"/>
<path d="M22.6274 2.12132L23.3345 2.82843L22.6274 3.53554L21.9203 2.82843L22.6274 2.12132Z" fill="white"/>
<path d="M22.6274 2.12132L23.3345 2.82843L22.6274 3.53554L21.9203 2.82843L22.6274 2.12132Z" fill="white"/>
<path d="M26.87 2.12132L27.5771 2.82843L26.87 3.53554L26.1629 2.82843L26.87 2.12132Z" fill="white"/>
<path d="M26.87 2.12132L27.5771 2.82843L26.87 3.53554L26.1629 2.82843L26.87 2.12132Z" fill="white"/>
<path d="M31.1127 2.12132L31.8198 2.82843L31.1127 3.53554L30.4056 2.82843L31.1127 2.12132Z" fill="white"/>
<path d="M31.1127 2.12132L31.8198 2.82843L31.1127 3.53554L30.4056 2.82843L31.1127 2.12132Z" fill="white"/>
<path d="M35.3553 2.12132L36.0624 2.82843L35.3553 3.53554L34.6482 2.82843L35.3553 2.12132Z" fill="white"/>
<path d="M35.3553 2.12132L36.0624 2.82843L35.3553 3.53554L34.6482 2.82843L35.3553 2.12132Z" fill="white"/>
<path d="M39.598 2.12132L40.3051 2.82843L39.598 3.53554L38.8909 2.82843L39.598 2.12132Z" fill="white"/>
<path d="M39.598 2.12132L40.3051 2.82843L39.598 3.53554L38.8909 2.82843L39.598 2.12132Z" fill="white"/>
<path d="M43.8406 2.12132L44.5477 2.82843L43.8406 3.53554L43.1335 2.82843L43.8406 2.12132Z" fill="white"/>
<path d="M43.8406 2.12132L44.5477 2.82843L43.8406 3.53554L43.1335 2.82843L43.8406 2.12132Z" fill="white"/>
<path d="M2.12132 2.82843L2.82842 3.53554L2.12132 4.24264L1.41421 3.53554L2.12132 2.82843Z" fill="white"/>
<path d="M2.12132 2.82843L2.82842 3.53554L2.12132 4.24264L1.41421 3.53554L2.12132 2.82843Z" fill="white"/>
<path d="M6.36397 2.82843L7.07107 3.53554L6.36397 4.24264L5.65686 3.53554L6.36397 2.82843Z" fill="white"/>
<path d="M6.36397 2.82843L7.07107 3.53554L6.36397 4.24264L5.65686 3.53554L6.36397 2.82843Z" fill="white"/>
<path d="M10.6066 2.82843L11.3137 3.53554L10.6066 4.24264L9.89951 3.53554L10.6066 2.82843Z" fill="white"/>
<path d="M10.6066 2.82843L11.3137 3.53554L10.6066 4.24264L9.89951 3.53554L10.6066 2.82843Z" fill="white"/>
<path d="M14.8492 2.82843L15.5563 3.53554L14.8492 4.24264L14.1421 3.53554L14.8492 2.82843Z" fill="white"/>
<path d="M14.8492 2.82843L15.5563 3.53554L14.8492 4.24264L14.1421 3.53554L14.8492 2.82843Z" fill="white"/>
<path d="M19.0919 2.82843L19.799 3.53554L19.0919 4.24264L18.3848 3.53554L19.0919 2.82843Z" fill="white"/>
<path d="M19.0919 2.82843L19.799 3.53554L19.0919 4.24264L18.3848 3.53554L19.0919 2.82843Z" fill="white"/>
<path d="M23.3345 2.82843L24.0416 3.53554L23.3345 4.24264L22.6274 3.53554L23.3345 2.82843Z" fill="white"/>
<path d="M23.3345 2.82843L24.0416 3.53554L23.3345 4.24264L22.6274 3.53554L23.3345 2.82843Z" fill="white"/>
<path d="M27.5771 2.82843L28.2842 3.53554L27.5771 4.24264L26.87 3.53554L27.5771 2.82843Z" fill="white"/>
<path d="M27.5771 2.82843L28.2842 3.53554L27.5771 4.24264L26.87 3.53554L27.5771 2.82843Z" fill="white"/>
<path d="M31.8198 2.82843L32.5269 3.53554L31.8198 4.24264L31.1127 3.53554L31.8198 2.82843Z" fill="white"/>
<path d="M31.8198 2.82843L32.5269 3.53554L31.8198 4.24264L31.1127 3.53554L31.8198 2.82843Z" fill="white"/>
<path d="M36.0624 2.82843L36.7695 3.53554L36.0624 4.24264L35.3553 3.53554L36.0624 2.82843Z" fill="white"/>
<path d="M36.0624 2.82843L36.7695 3.53554L36.0624 4.24264L35.3553 3.53554L36.0624 2.82843Z" fill="white"/>
<path d="M40.3051 2.82843L41.0122 3.53554L40.3051 4.24264L39.598 3.53554L40.3051 2.82843Z" fill="white"/>
<path d="M40.3051 2.82843L41.0122 3.53554L40.3051 4.24264L39.598 3.53554L40.3051 2.82843Z" fill="white"/>
<path d="M44.5477 2.82843L45.2548 3.53554L44.5477 4.24264L43.8406 3.53554L44.5477 2.82843Z" fill="white"/>
<path d="M44.5477 2.82843L45.2548 3.53554L44.5477 4.24264L43.8406 3.53554L44.5477 2.82843Z" fill="white"/>
<path d="M2.82843 2.12132L3.53553 2.82843L2.82843 3.53554L2.12132 2.82843L2.82843 2.12132Z" fill="white"/>
<path d="M2.82843 2.12132L3.53553 2.82843L2.82843 3.53554L2.12132 2.82843L2.82843 2.12132Z" fill="white"/>
<path d="M7.07107 2.12132L7.77817 2.82843L7.07107 3.53554L6.36396 2.82843L7.07107 2.12132Z" fill="white"/>
<path d="M7.07107 2.12132L7.77817 2.82843L7.07107 3.53554L6.36396 2.82843L7.07107 2.12132Z" fill="white"/>
<path d="M11.3137 2.12132L12.0208 2.82843L11.3137 3.53554L10.6066 2.82843L11.3137 2.12132Z" fill="white"/>
<path d="M11.3137 2.12132L12.0208 2.82843L11.3137 3.53554L10.6066 2.82843L11.3137 2.12132Z" fill="white"/>
<path d="M15.5563 2.12132L16.2634 2.82843L15.5563 3.53554L14.8492 2.82843L15.5563 2.12132Z" fill="white"/>
<path d="M15.5563 2.12132L16.2634 2.82843L15.5563 3.53554L14.8492 2.82843L15.5563 2.12132Z" fill="white"/>
<path d="M19.799 2.12132L20.5061 2.82843L19.799 3.53554L19.0919 2.82843L19.799 2.12132Z" fill="white"/>
<path d="M19.799 2.12132L20.5061 2.82843L19.799 3.53554L19.0919 2.82843L19.799 2.12132Z" fill="white"/>
<path d="M24.0416 2.12132L24.7487 2.82843L24.0416 3.53554L23.3345 2.82843L24.0416 2.12132Z" fill="white"/>
<path d="M24.0416 2.12132L24.7487 2.82843L24.0416 3.53554L23.3345 2.82843L24.0416 2.12132Z" fill="white"/>
<path d="M28.2843 2.12132L28.9914 2.82843L28.2843 3.53554L27.5772 2.82843L28.2843 2.12132Z" fill="white"/>
<path d="M28.2843 2.12132L28.9914 2.82843L28.2843 3.53554L27.5772 2.82843L28.2843 2.12132Z" fill="white"/>
<path d="M32.5269 2.12132L33.234 2.82843L32.5269 3.53554L31.8198 2.82843L32.5269 2.12132Z" fill="white"/>
<path d="M32.5269 2.12132L33.234 2.82843L32.5269 3.53554L31.8198 2.82843L32.5269 2.12132Z" fill="white"/>
<path d="M36.7695 2.12132L37.4766 2.82843L36.7695 3.53554L36.0624 2.82843L36.7695 2.12132Z" fill="white"/>
<path d="M36.7695 2.12132L37.4766 2.82843L36.7695 3.53554L36.0624 2.82843L36.7695 2.12132Z" fill="white"/>
<path d="M41.0122 2.12132L41.7193 2.82843L41.0122 3.53554L40.3051 2.82843L41.0122 2.12132Z" fill="white"/>
<path d="M41.0122 2.12132L41.7193 2.82843L41.0122 3.53554L40.3051 2.82843L41.0122 2.12132Z" fill="white"/>
<path d="M45.2548 2.12132L45.9619 2.82843L45.2548 3.53554L44.5477 2.82843L45.2548 2.12132Z" fill="white"/>
<path d="M45.2548 2.12132L45.9619 2.82843L45.2548 3.53554L44.5477 2.82843L45.2548 2.12132Z" fill="white"/>
<path d="M3.53554 1.41422L4.24265 2.12132L3.53554 2.82843L2.82843 2.12132L3.53554 1.41422Z" fill="white"/>
<path d="M3.53554 1.41422L4.24265 2.12132L3.53554 2.82843L2.82843 2.12132L3.53554 1.41422Z" fill="white"/>
<path d="M7.77818 1.41422L8.48528 2.12132L7.77818 2.82843L7.07107 2.12132L7.77818 1.41422Z" fill="white"/>
<path d="M7.77818 1.41422L8.48528 2.12132L7.77818 2.82843L7.07107 2.12132L7.77818 1.41422Z" fill="white"/>
<path d="M12.0208 1.41422L12.7279 2.12132L12.0208 2.82843L11.3137 2.12132L12.0208 1.41422Z" fill="white"/>
<path d="M12.0208 1.41422L12.7279 2.12132L12.0208 2.82843L11.3137 2.12132L12.0208 1.41422Z" fill="white"/>
<path d="M16.2634 1.41422L16.9705 2.12132L16.2634 2.82843L15.5563 2.12132L16.2634 1.41422Z" fill="white"/>
<path d="M16.2634 1.41422L16.9705 2.12132L16.2634 2.82843L15.5563 2.12132L16.2634 1.41422Z" fill="white"/>
<path d="M20.5061 1.41422L21.2132 2.12132L20.5061 2.82843L19.799 2.12132L20.5061 1.41422Z" fill="white"/>
<path d="M20.5061 1.41422L21.2132 2.12132L20.5061 2.82843L19.799 2.12132L20.5061 1.41422Z" fill="white"/>
<path d="M24.7487 1.41422L25.4558 2.12132L24.7487 2.82843L24.0416 2.12132L24.7487 1.41422Z" fill="white"/>
<path d="M24.7487 1.41422L25.4558 2.12132L24.7487 2.82843L24.0416 2.12132L24.7487 1.41422Z" fill="white"/>
<path d="M28.9914 1.41422L29.6985 2.12132L28.9914 2.82843L28.2843 2.12132L28.9914 1.41422Z" fill="white"/>
<path d="M28.9914 1.41422L29.6985 2.12132L28.9914 2.82843L28.2843 2.12132L28.9914 1.41422Z" fill="white"/>
<path d="M33.234 1.41422L33.9411 2.12132L33.234 2.82843L32.5269 2.12132L33.234 1.41422Z" fill="white"/>
<path d="M33.234 1.41422L33.9411 2.12132L33.234 2.82843L32.5269 2.12132L33.234 1.41422Z" fill="white"/>
<path d="M37.4766 1.41422L38.1837 2.12132L37.4766 2.82843L36.7695 2.12132L37.4766 1.41422Z" fill="white"/>
<path d="M37.4766 1.41422L38.1837 2.12132L37.4766 2.82843L36.7695 2.12132L37.4766 1.41422Z" fill="white"/>
<path d="M41.7193 1.41422L42.4264 2.12132L41.7193 2.82843L41.0122 2.12132L41.7193 1.41422Z" fill="white"/>
<path d="M41.7193 1.41422L42.4264 2.12132L41.7193 2.82843L41.0122 2.12132L41.7193 1.41422Z" fill="white"/>
<path d="M45.9619 1.41422L46.669 2.12132L45.9619 2.82843L45.2548 2.12132L45.9619 1.41422Z" fill="white"/>
<path d="M45.9619 1.41422L46.669 2.12132L45.9619 2.82843L45.2548 2.12132L45.9619 1.41422Z" fill="white"/>
<path d="M2.82843 2.12132L2.12132 1.41422L1.41422 2.12132L2.12132 2.82843L2.82843 2.12132Z" fill="white"/>
<path d="M2.82843 2.12132L2.12132 1.41422L1.41422 2.12132L2.12132 2.82843L2.82843 2.12132Z" fill="white"/>
<path d="M7.07107 2.12132L6.36396 1.41422L5.65686 2.12132L6.36396 2.82843L7.07107 2.12132Z" fill="white"/>
<path d="M7.07107 2.12132L6.36396 1.41422L5.65686 2.12132L6.36396 2.82843L7.07107 2.12132Z" fill="white"/>
<path d="M11.3137 2.12132L10.6066 1.41422L9.89952 2.12132L10.6066 2.82843L11.3137 2.12132Z" fill="white"/>
<path d="M11.3137 2.12132L10.6066 1.41422L9.89952 2.12132L10.6066 2.82843L11.3137 2.12132Z" fill="white"/>
<path d="M15.5563 2.12132L14.8492 1.41422L14.1421 2.12132L14.8492 2.82843L15.5563 2.12132Z" fill="white"/>
<path d="M15.5563 2.12132L14.8492 1.41422L14.1421 2.12132L14.8492 2.82843L15.5563 2.12132Z" fill="white"/>
<path d="M19.799 2.12132L19.0919 1.41422L18.3848 2.12132L19.0919 2.82843L19.799 2.12132Z" fill="white"/>
<path d="M19.799 2.12132L19.0919 1.41422L18.3848 2.12132L19.0919 2.82843L19.799 2.12132Z" fill="white"/>
<path d="M24.0416 2.12132L23.3345 1.41422L22.6274 2.12132L23.3345 2.82843L24.0416 2.12132Z" fill="white"/>
<path d="M24.0416 2.12132L23.3345 1.41422L22.6274 2.12132L23.3345 2.82843L24.0416 2.12132Z" fill="white"/>
<path d="M28.2842 2.12132L27.5771 1.41422L26.87 2.12132L27.5771 2.82843L28.2842 2.12132Z" fill="white"/>
<path d="M28.2842 2.12132L27.5771 1.41422L26.87 2.12132L27.5771 2.82843L28.2842 2.12132Z" fill="white"/>
<path d="M32.5269 2.12132L31.8198 1.41422L31.1127 2.12132L31.8198 2.82843L32.5269 2.12132Z" fill="white"/>
<path d="M32.5269 2.12132L31.8198 1.41422L31.1127 2.12132L31.8198 2.82843L32.5269 2.12132Z" fill="white"/>
<path d="M36.7695 2.12132L36.0624 1.41422L35.3553 2.12132L36.0624 2.82843L36.7695 2.12132Z" fill="white"/>
<path d="M36.7695 2.12132L36.0624 1.41422L35.3553 2.12132L36.0624 2.82843L36.7695 2.12132Z" fill="white"/>
<path d="M41.0122 2.12132L40.3051 1.41422L39.598 2.12132L40.3051 2.82843L41.0122 2.12132Z" fill="white"/>
<path d="M41.0122 2.12132L40.3051 1.41422L39.598 2.12132L40.3051 2.82843L41.0122 2.12132Z" fill="white"/>
<path d="M45.2548 2.12132L44.5477 1.41422L43.8406 2.12132L44.5477 2.82843L45.2548 2.12132Z" fill="white"/>
<path d="M45.2548 2.12132L44.5477 1.41422L43.8406 2.12132L44.5477 2.82843L45.2548 2.12132Z" fill="white"/>
<path d="M3.53553 1.41421L2.82842 0.707108L2.12132 1.41421L2.82842 2.12132L3.53553 1.41421Z" fill="white"/>
<path d="M3.53553 1.41421L2.82842 0.707108L2.12132 1.41421L2.82842 2.12132L3.53553 1.41421Z" fill="white"/>
<path d="M7.77818 1.41421L7.07107 0.707108L6.36397 1.41421L7.07107 2.12132L7.77818 1.41421Z" fill="white"/>
<path d="M7.77818 1.41421L7.07107 0.707108L6.36397 1.41421L7.07107 2.12132L7.77818 1.41421Z" fill="white"/>
<path d="M12.0208 1.41421L11.3137 0.707108L10.6066 1.41421L11.3137 2.12132L12.0208 1.41421Z" fill="white"/>
<path d="M12.0208 1.41421L11.3137 0.707108L10.6066 1.41421L11.3137 2.12132L12.0208 1.41421Z" fill="white"/>
<path d="M16.2634 1.41421L15.5563 0.707108L14.8492 1.41421L15.5563 2.12132L16.2634 1.41421Z" fill="white"/>
<path d="M16.2634 1.41421L15.5563 0.707108L14.8492 1.41421L15.5563 2.12132L16.2634 1.41421Z" fill="white"/>
<path d="M20.5061 1.41421L19.799 0.707108L19.0919 1.41421L19.799 2.12132L20.5061 1.41421Z" fill="white"/>
<path d="M20.5061 1.41421L19.799 0.707108L19.0919 1.41421L19.799 2.12132L20.5061 1.41421Z" fill="white"/>
<path d="M24.7487 1.41421L24.0416 0.707108L23.3345 1.41421L24.0416 2.12132L24.7487 1.41421Z" fill="white"/>
<path d="M24.7487 1.41421L24.0416 0.707108L23.3345 1.41421L24.0416 2.12132L24.7487 1.41421Z" fill="white"/>
<path d="M28.9913 1.41421L28.2842 0.707108L27.5771 1.41421L28.2842 2.12132L28.9913 1.41421Z" fill="white"/>
<path d="M28.9913 1.41421L28.2842 0.707108L27.5771 1.41421L28.2842 2.12132L28.9913 1.41421Z" fill="white"/>
<path d="M33.234 1.41421L32.5269 0.707108L31.8198 1.41421L32.5269 2.12132L33.234 1.41421Z" fill="white"/>
<path d="M33.234 1.41421L32.5269 0.707108L31.8198 1.41421L32.5269 2.12132L33.234 1.41421Z" fill="white"/>
<path d="M37.4766 1.41421L36.7695 0.707108L36.0624 1.41421L36.7695 2.12132L37.4766 1.41421Z" fill="white"/>
<path d="M37.4766 1.41421L36.7695 0.707108L36.0624 1.41421L36.7695 2.12132L37.4766 1.41421Z" fill="white"/>
<path d="M41.7193 1.41421L41.0122 0.707108L40.3051 1.41421L41.0122 2.12132L41.7193 1.41421Z" fill="white"/>
<path d="M41.7193 1.41421L41.0122 0.707108L40.3051 1.41421L41.0122 2.12132L41.7193 1.41421Z" fill="white"/>
<path d="M45.9619 1.41421L45.2548 0.707108L44.5477 1.41421L45.2548 2.12132L45.9619 1.41421Z" fill="white"/>
<path d="M45.9619 1.41421L45.2548 0.707108L44.5477 1.41421L45.2548 2.12132L45.9619 1.41421Z" fill="white"/>
</svg>
